<?xml version="1.0" encoding="UTF-8"?>
<svg id="Layer_1" data-name="Layer 1" xmlns="http://www.w3.org/2000/svg" xmlns:xlink="http://www.w3.org/1999/xlink" viewBox="0 0 421.19 97.44">
  <defs>
    <style>
      .cls-1 {
        fill: none;
      }

      .cls-2 {
        fill: url(#Gradiente_sem_nome);
      }

      .cls-3 {
        fill: url(#Gradiente_sem_nome_4);
      }

      .cls-4 {
        fill: url(#Gradiente_sem_nome_2);
      }

      .cls-5 {
        fill: url(#Gradiente_sem_nome_5);
      }

      .cls-6 {
        fill: url(#Gradiente_sem_nome_3);
      }

      .cls-7 {
        clip-path: url(#clippath-1);
      }

      .cls-8 {
        clip-path: url(#clippath-3);
      }

      .cls-9 {
        clip-path: url(#clippath-4);
      }

      .cls-10 {
        clip-path: url(#clippath-2);
      }

      .cls-11 {
        clip-path: url(#clippath-7);
      }

      .cls-12 {
        clip-path: url(#clippath-6);
      }

      .cls-13 {
        clip-path: url(#clippath-5);
      }

      .cls-14 {
        fill: #fff;
      }

      .cls-15 {
        clip-path: url(#clippath);
      }
    </style>
    <clipPath id="clippath">
      <rect class="cls-1" x="2.63" y=".14" width="70.85" height="95.72"/>
    </clipPath>
    <clipPath id="clippath-1">
      <path class="cls-1" d="M45.08.14C25.31,1.59,8.83,14.85,2.63,32.89c2.79,27.91,15.65,40.77,28.11,49.35,12.46,8.58,42.73,13.61,42.73,13.61-4.73-.89-22.69-5.51-34.33-18.11-3.99-4.32-6.84-9.01-8.8-13.68,0,0,0,0,0,0,0,0,0,0,0,0-1.08-2.55-1.89-5.11-2.48-7.6-1.51-5.57-3.19-13.85-3.42-23.68C24.02,15.37,33.87,3.06,45.08.14Z"/>
    </clipPath>
    <linearGradient id="Gradiente_sem_nome" data-name="Gradiente sem nome" x1="-763.33" y1="504.93" x2="-762.33" y2="504.93" gradientTransform="translate(-20863.95 -36830.33) rotate(-86.05) scale(46.33)" gradientUnits="userSpaceOnUse">
      <stop offset="0" stop-color="#6f0413"/>
      <stop offset="1" stop-color="#c70725"/>
    </linearGradient>
    <clipPath id="clippath-2">
      <rect class="cls-1" y="32.89" width="74.27" height="64.55"/>
    </clipPath>
    <clipPath id="clippath-3">
      <path class="cls-1" d="M2.63,32.89c-1.7,4.96-2.63,10.29-2.63,15.83,0,26.91,21.81,48.72,48.72,48.72h24.76c.81,0,1.28-1.35,0-1.59,0,0-30.27-5.04-42.73-13.61-12.46-8.58-25.33-21.44-28.12-49.35Z"/>
    </clipPath>
    <linearGradient id="Gradiente_sem_nome_2" data-name="Gradiente sem nome 2" x1="-767.81" y1="525.57" x2="-766.81" y2="525.57" gradientTransform="translate(-7698.13 -19246.31) rotate(-77.39) scale(22.39)" gradientUnits="userSpaceOnUse">
      <stop offset="0" stop-color="#850419"/>
      <stop offset="1" stop-color="#c70725"/>
    </linearGradient>
    <clipPath id="clippath-4">
      <rect class="cls-1" x="24.43" width="72.57" height="56.47"/>
    </clipPath>
    <clipPath id="clippath-5">
      <path class="cls-1" d="M68.14,20.24c23.51,3.26,28.73,21.47,28.87,21.99C93.83,18.39,73.43,0,48.72,0c-1.22,0-2.44.05-3.64.14-11.21,2.92-21.06,15.23-20.63,32.66.24,9.84,1.92,18.12,3.42,23.68-1.79-7.55-1.53-14.49-.44-19.13,1.92-8.14,5.44-11.82,9.45-14.45,2.66-1.74,4.85-2.53,6.6-2.81.21-.04,10.91-1.75,24.65.15Z"/>
    </clipPath>
    <linearGradient id="Gradiente_sem_nome_3" data-name="Gradiente sem nome 3" x1="-743.61" y1="494.69" x2="-742.61" y2="494.69" gradientTransform="translate(53990.4 -35872.78) scale(72.57)" gradientUnits="userSpaceOnUse">
      <stop offset="0" stop-color="#720414"/>
      <stop offset="1" stop-color="#c50725"/>
    </linearGradient>
    <clipPath id="clippath-6">
      <rect class="cls-1" x="43.49" y="19.34" width="53.95" height="61.66"/>
    </clipPath>
    <linearGradient id="Gradiente_sem_nome_4" data-name="Gradiente sem nome 4" x1="43.49" y1="49.83" x2="97.44" y2="49.83" gradientTransform="translate(0 100) scale(1 -1)" gradientUnits="userSpaceOnUse">
      <stop offset="0" stop-color="#6f0413"/>
      <stop offset="1" stop-color="#c70725"/>
    </linearGradient>
    <clipPath id="clippath-7">
      <path class="cls-1" d="M97.01,42.23c-.14-.52-5.36-18.73-28.87-21.99-13.74-1.91-24.44-.19-24.65-.15,1.71-.27,3-.05,3.89.26,2.6.9,5.29,3.55,8.08,8.24,1.53,2.56,2.97,5.8,3.67,8.89.05.22.1.44.14.65.19.98.3,1.93.3,2.84s-.11,1.84-.36,2.64c-.72,2.31-3,3.88-5.05,5.11-3.66,2.21-5.91,4.85-5.25,9.66.05.36.12.73.21,1.11.85,3.73,3.38,8.36,5.22,10.51,3.8,4.44,6.45,6.67,10.85,9.06,8.24,4.46,21.96,1.12,27.42-9.12,3.36-6.29,4.86-13.61,4.86-21.23,0-2.2-.15-4.37-.43-6.49Z"/>
    </clipPath>
    <linearGradient id="Gradiente_sem_nome_5" data-name="Gradiente sem nome 5" x1="-743.35" y1="473.69" x2="-742.35" y2="473.69" gradientTransform="translate(26303.68 35676.74) rotate(86.16) scale(50.22)" gradientUnits="userSpaceOnUse">
      <stop offset="0" stop-color="#6f0413"/>
      <stop offset="1" stop-color="#c70725"/>
    </linearGradient>
  </defs>
  <path class="cls-14" d="M123.94,30.98h13.15v10.27h-13.15v21.78c0,2.67.63,4.83,1.9,6.47,1.27,1.64,3.07,2.46,5.39,2.46,1.78,0,3.6-.44,5.44-1.34l3.9,9.65c-1.03.82-2.55,1.54-4.57,2.16-2.02.61-3.85.92-5.49.92-6.23,0-11.09-1.57-14.59-4.72-3.49-3.15-5.24-7.56-5.24-13.25V20.63l13.25-5.18v15.53h0Z"/>
  <path class="cls-14" d="M169.75,30.98c5,0,9.21,1.17,12.63,3.49,3.42,2.33,5.96,5.46,7.6,9.4,1.64,3.94,2.47,8.34,2.47,13.2v4.11h-33.59c.68,3.49,2.17,6.16,4.47,8.01,2.29,1.85,5.8,2.77,10.53,2.77,2.74,0,5.2-.38,7.4-1.13,2.19-.75,4.55-1.85,7.09-3.29l3.9,9.65c-2.53,1.99-5.27,3.51-8.22,4.57-2.94,1.06-6.44,1.59-10.48,1.59-9.45,0-16.62-2.31-21.52-6.93-4.9-4.62-7.34-11.01-7.34-19.16,0-5.27,1.01-9.89,3.03-13.86,2.02-3.97,4.91-7.04,8.68-9.19,3.77-2.16,8.22-3.24,13.35-3.24M169.44,42.38c-2.74,0-5.03.84-6.88,2.52-1.85,1.68-3.05,4.13-3.59,7.34h20.85c-.68-3.29-1.9-5.75-3.65-7.4-1.75-1.64-3.99-2.47-6.73-2.47"/>
  <rect class="cls-14" x="201.7" y="20.63" width="13.25" height="61.49"/>
  <path class="cls-14" d="M249.25,30.98c5,0,9.21,1.17,12.63,3.49,3.43,2.33,5.96,5.46,7.6,9.4,1.64,3.94,2.47,8.34,2.47,13.2v4.11h-33.59c.68,3.49,2.18,6.16,4.47,8.01,2.29,1.85,5.8,2.77,10.53,2.77,2.74,0,5.2-.38,7.39-1.13,2.19-.75,4.55-1.85,7.09-3.29l3.9,9.65c-2.53,1.99-5.28,3.51-8.22,4.57-2.95,1.06-6.44,1.59-10.48,1.59-9.45,0-16.62-2.31-21.52-6.93-4.9-4.62-7.35-11.01-7.35-19.16,0-5.27,1.01-9.89,3.03-13.86,2.02-3.97,4.91-7.04,8.68-9.19,3.77-2.16,8.22-3.24,13.35-3.24M248.94,42.38c-2.74,0-5.03.84-6.88,2.52-1.85,1.68-3.05,4.13-3.6,7.34h20.85c-.68-3.29-1.9-5.75-3.65-7.4-1.75-1.64-3.99-2.47-6.73-2.47"/>
  <path class="cls-14" d="M303.59,30.98c2.33,0,5.2.48,8.63,1.44,3.42.96,6.3,2.23,8.63,3.8l-3.8,9.55c-2.61-1.16-4.93-2.02-6.99-2.57-2.05-.55-4.18-.82-6.37-.82-3.7,0-6.76,1.4-9.2,4.21-2.43,2.81-3.64,6.37-3.64,10.68s1.2,7.84,3.6,10.58c2.4,2.74,5.48,4.11,9.24,4.11,2.19,0,4.31-.27,6.37-.82,2.05-.55,4.38-1.4,6.99-2.57l3.8,9.65c-2.12,1.64-4.9,2.91-8.32,3.8-3.42.89-6.4,1.33-8.94,1.33-5.34,0-10.01-1.06-14.02-3.18-4.01-2.12-7.09-5.15-9.25-9.09-2.16-3.94-3.23-8.54-3.23-13.82s1.08-9.89,3.23-13.86c2.16-3.97,5.24-7.04,9.25-9.19,4.01-2.16,8.68-3.24,14.02-3.24"/>
  <path class="cls-14" d="M347.96,43.3c-2.26,0-4.76.32-7.5.97-2.74.65-5.07,1.42-6.99,2.31l-3.6-11.1c1.78-1.16,4.62-2.21,8.53-3.13,3.9-.92,7.02-1.39,9.35-1.39,3.97,0,7.6.79,10.89,2.36,3.29,1.58,5.9,3.77,7.86,6.57,1.95,2.81,2.93,5.96,2.93,9.45v32.77h-10.99v-5.34c-4.18,4.38-8.56,6.57-13.15,6.57-5.96,0-10.44-1.45-13.45-4.36-3.02-2.91-4.52-6.83-4.52-11.76s1.71-8.99,5.13-11.76c3.42-2.77,8.01-4.16,13.76-4.16h9.76c-.07-2.53-.8-4.5-2.21-5.91-1.41-1.4-3.34-2.1-5.81-2.1M346.01,60.25c-2.19,0-3.95.69-5.29,2.06-1.33,1.37-2,3.01-2,4.93,0,1.51.6,2.81,1.8,3.9,1.2,1.1,2.72,1.64,4.57,1.64,3.97,0,7.64-1.64,10.99-4.93v-7.6h-10.07Z"/>
  <rect class="cls-14" x="381.34" y="20.63" width="13.25" height="61.49"/>
  <rect class="cls-14" x="407.94" y="10.27" width="13.25" height="71.85"/>
  <g class="cls-15">
    <g class="cls-7">
      <polygon class="cls-2" points="-3.95 95.4 2.97 -4.74 80.07 .59 73.14 100.73 -3.95 95.4"/>
    </g>
  </g>
  <g class="cls-10">
    <g class="cls-8">
      <polygon class="cls-4" points="-13.76 94.36 3.57 16.96 88.51 35.97 71.19 113.37 -13.76 94.36"/>
    </g>
  </g>
  <g class="cls-9">
    <g class="cls-13">
      <rect class="cls-6" x="24.02" width="72.99" height="56.47"/>
    </g>
  </g>
  <g class="cls-12">
    <g>
      <path id="SVGID" class="cls-3" d="M97.01,42.23c-.14-.52-5.36-18.73-28.87-21.99-13.74-1.91-24.44-.19-24.65-.15,1.71-.27,3-.05,3.89.26,2.6.9,5.29,3.55,8.08,8.24,1.53,2.56,2.97,5.8,3.67,8.89.05.22.1.44.14.65.19.98.3,1.93.3,2.84s-.11,1.84-.36,2.64c-.72,2.31-3,3.88-5.05,5.11-3.66,2.21-5.91,4.85-5.25,9.66.05.36.12.73.21,1.11.85,3.73,3.38,8.36,5.22,10.51,3.8,4.44,6.45,6.68,10.85,9.06,8.24,4.46,21.96,1.11,27.42-9.12,3.36-6.29,4.86-13.61,4.86-21.23,0-2.2-.15-4.37-.43-6.49"/>
      <g class="cls-11">
        <polygon class="cls-5" points="97.2 14.73 101.79 83.24 43.73 87.13 39.13 18.62 97.2 14.73"/>
      </g>
    </g>
  </g>
</svg>